<?xml version="1.0" encoding="UTF-8" standalone="no"?>
<!DOCTYPE svg PUBLIC "-//W3C//DTD SVG 1.1//EN" "http://www.w3.org/Graphics/SVG/1.1/DTD/svg11.dtd">
<svg width="100%" height="100%" viewBox="0 0 73 65" version="1.1" xmlns="http://www.w3.org/2000/svg" xmlns:xlink="http://www.w3.org/1999/xlink" xml:space="preserve" xmlns:serif="http://www.serif.com/" style="fill-rule:evenodd;clip-rule:evenodd;stroke-linejoin:round;stroke-miterlimit:2;">
    <g transform="matrix(1.24946,0,0,1.24946,0,0)">
        <g transform="matrix(0.800347,0,0,0.800347,0,0)">
            <path d="M50.045,53.49C50.353,53.93 50.534,54.466 50.534,55.046C50.534,56.546 49.327,57.753 47.826,57.753L17.145,57.753C15.645,57.753 14.438,56.546 14.438,55.046C14.438,53.545 15.645,52.338 17.145,52.338L25.267,52.338L27.072,46.924L5.414,46.924C2.425,46.924 0,44.499 0,41.51L0,5.414C0,2.425 2.425,0 5.414,0L59.557,0C62.547,0 64.972,2.425 64.972,5.414L64.972,23.657L57.753,23.657L57.753,7.219L7.219,7.219L7.219,39.705L48.112,39.705L48.112,46.924L37.9,46.924L39.705,52.338L47.826,52.338C47.968,52.338 48.106,52.349 48.241,52.37C48.506,53.026 49.15,53.49 49.901,53.49L50.045,53.49Z" style="fill-rule:nonzero;"/>
        </g>
        <g transform="matrix(0.069224,0,0,0.069224,35.2372,15.7795)">
            <path d="M272,0L48,0C21.5,0 0,21.5 0,48L0,464C0,490.5 21.5,512 48,512L272,512C298.5,512 320,490.5 320,464L320,48C320,21.5 298.5,0 272,0ZM160,480C142.3,480 128,465.7 128,448C128,430.3 142.3,416 160,416C177.7,416 192,430.3 192,448C192,465.7 177.7,480 160,480ZM272,372C272,378.6 266.6,384 260,384L60,384C53.4,384 48,378.6 48,372L48,60C48,53.4 53.4,48 60,48L260,48C266.6,48 272,53.4 272,60L272,372Z" style="fill-rule:nonzero;stroke:white;stroke-width:11.56px;"/>
        </g>
    </g>
</svg>
